{
	"asset":{
		"generator":"Khronos glTF Blender I/O v4.2.60",
		"version":"2.0"
	},
	"scene":0,
	"scenes":[
		{
			"name":"Scene",
			"nodes":[
				0
			]
		}
	],
	"nodes":[
		{
			"mesh":0,
			"name":"Cube.023",
			"translation":[
				0.010703827254474163,
				0.9700543880462646,
				-0.006856787018477917
			]
		}
	],
	"materials":[
		{
			"doubleSided":true,
			"name":"Color - Blue",
			"pbrMetallicRoughness":{
				"baseColorFactor":[
					0.06163523346185684,
					0.8065762519836426,
					0.030323563143610954,
					1
				],
				"metallicFactor":0,
				"roughnessFactor":0.2776978611946106
			}
		},
		{
			"doubleSided":true,
			"name":"Color - Orange",
			"pbrMetallicRoughness":{
				"baseColorFactor":[
					1,
					0.1912015974521637,
					0.026241250336170197,
					1
				],
				"metallicFactor":0,
				"roughnessFactor":0.5
			}
		}
	],
	"meshes":[
		{
			"name":"Cube.060",
			"primitives":[
				{
					"attributes":{
						"POSITION":0,
						"NORMAL":1,
						"TEXCOORD_0":2
					},
					"indices":3,
					"material":0
				},
				{
					"attributes":{
						"POSITION":4,
						"NORMAL":5,
						"TEXCOORD_0":6
					},
					"indices":7,
					"material":1
				}
			]
		}
	],
	"accessors":[
		{
			"bufferView":0,
			"componentType":5126,
			"count":15228,
			"max":[
				0.7480107545852661,
				1.0268499851226807,
				0.7480107545852661
			],
			"min":[
				-0.7480107545852661,
				-0.8792119026184082,
				-0.7480107545852661
			],
			"type":"VEC3"
		},
		{
			"bufferView":1,
			"componentType":5126,
			"count":15228,
			"type":"VEC3"
		},
		{
			"bufferView":2,
			"componentType":5126,
			"count":15228,
			"type":"VEC2"
		},
		{
			"bufferView":3,
			"componentType":5123,
			"count":82944,
			"type":"SCALAR"
		},
		{
			"bufferView":4,
			"componentType":5126,
			"count":31398,
			"max":[
				0.4313488006591797,
				0.770797610282898,
				0.9427985548973083
			],
			"min":[
				-0.8095115423202515,
				-0.1725625842809677,
				-0.40295857191085815
			],
			"type":"VEC3"
		},
		{
			"bufferView":5,
			"componentType":5126,
			"count":31398,
			"type":"VEC3"
		},
		{
			"bufferView":6,
			"componentType":5126,
			"count":31398,
			"type":"VEC2"
		},
		{
			"bufferView":7,
			"componentType":5123,
			"count":182016,
			"type":"SCALAR"
		}
	],
	"bufferViews":[
		{
			"buffer":0,
			"byteLength":182736,
			"byteOffset":0,
			"target":34962
		},
		{
			"buffer":0,
			"byteLength":182736,
			"byteOffset":182736,
			"target":34962
		},
		{
			"buffer":0,
			"byteLength":121824,
			"byteOffset":365472,
			"target":34962
		},
		{
			"buffer":0,
			"byteLength":165888,
			"byteOffset":487296,
			"target":34963
		},
		{
			"buffer":0,
			"byteLength":376776,
			"byteOffset":653184,
			"target":34962
		},
		{
			"buffer":0,
			"byteLength":376776,
			"byteOffset":1029960,
			"target":34962
		},
		{
			"buffer":0,
			"byteLength":251184,
			"byteOffset":1406736,
			"target":34962
		},
		{
			"buffer":0,
			"byteLength":364032,
			"byteOffset":1657920,
			"target":34963
		}
	],
	"buffers":[
		{
			"byteLength":2021952,
			"uri":"pouch.bin"
		}
	]
}
