{
	"asset":{
		"generator":"Khronos glTF Blender I/O v4.2.60",
		"version":"2.0"
	},
	"extensionsUsed":[
		"KHR_materials_specular"
	],
	"scene":0,
	"scenes":[
		{
			"name":"Scene",
			"nodes":[
				0
			]
		}
	],
	"nodes":[
		{
			"mesh":0,
			"name":"Candy-in-Sock",
			"rotation":[
				0,
				0.2535039782524109,
				0,
				0.9673343300819397
			],
			"scale":[
				0.06605904549360275,
				0.06605904549360275,
				0.06605904549360275
			],
			"translation":[
				0.013502582907676697,
				2.288029670715332,
				-0.03467202186584473
			]
		}
	],
	"materials":[
		{
			"doubleSided":true,
			"extensions":{
				"KHR_materials_specular":{
					"specularFactor":0
				}
			},
			"name":"20 - Default.004",
			"pbrMetallicRoughness":{
				"baseColorTexture":{
					"index":0
				},
				"roughnessFactor":0.858578622341156
			}
		}
	],
	"meshes":[
		{
			"name":"Mesh.066",
			"primitives":[
				{
					"attributes":{
						"POSITION":0,
						"NORMAL":1,
						"TEXCOORD_0":2
					},
					"indices":3,
					"material":0
				}
			]
		}
	],
	"textures":[
		{
			"sampler":0,
			"source":0
		}
	],
	"images":[
		{
			"mimeType":"image/png",
			"name":"Curve_Candy_01",
			"uri":"Curve_Candy_01.png"
		}
	],
	"accessors":[
		{
			"bufferView":0,
			"componentType":5126,
			"count":196,
			"max":[
				5.0596818923950195,
				2.363849639892578,
				3.6974830627441406
			],
			"min":[
				-6.768211841583252,
				-34.40464401245117,
				-1.9404222965240479
			],
			"type":"VEC3"
		},
		{
			"bufferView":1,
			"componentType":5126,
			"count":196,
			"type":"VEC3"
		},
		{
			"bufferView":2,
			"componentType":5126,
			"count":196,
			"type":"VEC2"
		},
		{
			"bufferView":3,
			"componentType":5123,
			"count":1062,
			"type":"SCALAR"
		}
	],
	"bufferViews":[
		{
			"buffer":0,
			"byteLength":2352,
			"byteOffset":0,
			"target":34962
		},
		{
			"buffer":0,
			"byteLength":2352,
			"byteOffset":2352,
			"target":34962
		},
		{
			"buffer":0,
			"byteLength":1568,
			"byteOffset":4704,
			"target":34962
		},
		{
			"buffer":0,
			"byteLength":2124,
			"byteOffset":6272,
			"target":34963
		}
	],
	"samplers":[
		{
			"magFilter":9729,
			"minFilter":9987
		}
	],
	"buffers":[
		{
			"byteLength":8396,
			"uri":"socks.bin"
		}
	]
}
