{
	"asset":{
		"generator":"Khronos glTF Blender I/O v4.2.60",
		"version":"2.0"
	},
	"extensionsUsed":[
		"KHR_materials_specular"
	],
	"scene":0,
	"scenes":[
		{
			"name":"Scene",
			"nodes":[
				0
			]
		}
	],
	"nodes":[
		{
			"mesh":0,
			"name":"Sock-Gift",
			"rotation":[
				0,
				0.2965766489505768,
				0,
				0.9550091624259949
			],
			"scale":[
				0.03160424157977104,
				0.03160424157977104,
				0.03160424157977104
			],
			"translation":[
				0.10121560096740723,
				0.17506612837314606,
				0.0022825002670288086
			]
		}
	],
	"materials":[
		{
			"doubleSided":true,
			"extensions":{
				"KHR_materials_specular":{
					"specularFactor":0
				}
			},
			"name":"Material #262",
			"pbrMetallicRoughness":{
				"baseColorTexture":{
					"index":0
				},
				"roughnessFactor":0.858578622341156
			}
		}
	],
	"meshes":[
		{
			"name":"Mesh.030",
			"primitives":[
				{
					"attributes":{
						"POSITION":0,
						"NORMAL":1,
						"TEXCOORD_0":2
					},
					"indices":3,
					"material":0
				}
			]
		}
	],
	"textures":[
		{
			"sampler":0,
			"source":0
		}
	],
	"images":[
		{
			"mimeType":"image/png",
			"name":"elf-rudoft-ginger-gift",
			"uri":"elf-rudoft-ginger-gift.png"
		}
	],
	"accessors":[
		{
			"bufferView":0,
			"componentType":5126,
			"count":557,
			"max":[
				7.623199462890625,
				35.41164779663086,
				6.669464111328125
			],
			"min":[
				-16.821502685546875,
				-5.19741153717041,
				-6.908172607421875
			],
			"type":"VEC3"
		},
		{
			"bufferView":1,
			"componentType":5126,
			"count":557,
			"type":"VEC3"
		},
		{
			"bufferView":2,
			"componentType":5126,
			"count":557,
			"type":"VEC2"
		},
		{
			"bufferView":3,
			"componentType":5123,
			"count":2532,
			"type":"SCALAR"
		}
	],
	"bufferViews":[
		{
			"buffer":0,
			"byteLength":6684,
			"byteOffset":0,
			"target":34962
		},
		{
			"buffer":0,
			"byteLength":6684,
			"byteOffset":6684,
			"target":34962
		},
		{
			"buffer":0,
			"byteLength":4456,
			"byteOffset":13368,
			"target":34962
		},
		{
			"buffer":0,
			"byteLength":5064,
			"byteOffset":17824,
			"target":34963
		}
	],
	"samplers":[
		{
			"magFilter":9729,
			"minFilter":9987
		}
	],
	"buffers":[
		{
			"byteLength":22888,
			"uri":"socks.bin"
		}
	]
}
