{
	"asset":{
		"generator":"Khronos glTF Blender I/O v4.2.60",
		"version":"2.0"
	},
	"scene":0,
	"scenes":[
		{
			"name":"Scene",
			"nodes":[
				0
			]
		}
	],
	"nodes":[
		{
			"mesh":0,
			"name":"cartoon gift box",
			"rotation":[
				0.7071068286895752,
				0,
				0,
				0.7071068286895752
			],
			"scale":[
				0.0032765530049800873,
				0.0032765530049800873,
				0.0032765530049800873
			],
			"translation":[
				-0.059273719787597656,
				0.029636837542057037,
				0
			]
		}
	],
	"materials":[
		{
			"doubleSided":true,
			"name":"cartoon gift box.001",
			"normalTexture":{
				"index":0
			},
			"pbrMetallicRoughness":{
				"baseColorTexture":{
					"index":1
				},
				"metallicRoughnessTexture":{
					"index":2
				}
			}
		}
	],
	"meshes":[
		{
			"name":"Cube.001",
			"primitives":[
				{
					"attributes":{
						"POSITION":0,
						"NORMAL":1,
						"TEXCOORD_0":2
					},
					"indices":3,
					"material":0
				}
			]
		}
	],
	"textures":[
		{
			"sampler":0,
			"source":0
		},
		{
			"sampler":0,
			"source":1
		},
		{
			"sampler":0,
			"source":2
		}
	],
	"images":[
		{
			"mimeType":"image/png",
			"name":"gift_DefaultMaterial_Normal",
			"uri":"gift_DefaultMaterial_Normal.png"
		},
		{
			"mimeType":"image/png",
			"name":"gift_DefaultMaterial_BaseColor",
			"uri":"gift_DefaultMaterial_BaseColor.png"
		},
		{
			"mimeType":"image/png",
			"name":"gift_DefaultMaterial_Metallic.png-gift_DefaultMaterial_Roughness.png",
			"uri":"gift_DefaultMaterial_Metallic_png-gift_DefaultMaterial_Roughness_png.png"
		}
	],
	"accessors":[
		{
			"bufferView":0,
			"componentType":5126,
			"count":4546,
			"max":[
				180.85861206054688,
				149.21920776367188,
				-3.436756134033203
			],
			"min":[
				-180.85858154296875,
				-149.21920776367188,
				-344.6321105957031
			],
			"type":"VEC3"
		},
		{
			"bufferView":1,
			"componentType":5126,
			"count":4546,
			"type":"VEC3"
		},
		{
			"bufferView":2,
			"componentType":5126,
			"count":4546,
			"type":"VEC2"
		},
		{
			"bufferView":3,
			"componentType":5123,
			"count":21672,
			"type":"SCALAR"
		}
	],
	"bufferViews":[
		{
			"buffer":0,
			"byteLength":54552,
			"byteOffset":0,
			"target":34962
		},
		{
			"buffer":0,
			"byteLength":54552,
			"byteOffset":54552,
			"target":34962
		},
		{
			"buffer":0,
			"byteLength":36368,
			"byteOffset":109104,
			"target":34962
		},
		{
			"buffer":0,
			"byteLength":43344,
			"byteOffset":145472,
			"target":34963
		}
	],
	"samplers":[
		{
			"magFilter":9729,
			"minFilter":9987
		}
	],
	"buffers":[
		{
			"byteLength":188816,
			"uri":"gift.bin"
		}
	]
}
