{
	"asset":{
		"generator":"Khronos glTF Blender I/O v4.2.60",
		"version":"2.0"
	},
	"extensionsUsed":[
		"KHR_materials_specular"
	],
	"scene":0,
	"scenes":[
		{
			"name":"Scene",
			"nodes":[
				0
			]
		}
	],
	"nodes":[
		{
			"mesh":0,
			"name":"CandyCane_03",
			"scale":[
				0.06579174846410751,
				0.06579174846410751,
				0.06579174846410751
			],
			"translation":[
				0.006953107193112373,
				0.5520796775817871,
				-0.0003466634079813957
			]
		}
	],
	"materials":[
		{
			"doubleSided":true,
			"extensions":{
				"KHR_materials_specular":{
					"specularFactor":0
				}
			},
			"name":"Material #427.001",
			"pbrMetallicRoughness":{
				"baseColorTexture":{
					"index":0
				},
				"roughnessFactor":0.858578622341156
			}
		}
	],
	"meshes":[
		{
			"name":"Mesh.003",
			"primitives":[
				{
					"attributes":{
						"POSITION":0,
						"NORMAL":1,
						"TEXCOORD_0":2
					},
					"indices":3,
					"material":0
				}
			]
		}
	],
	"textures":[
		{
			"sampler":0,
			"source":0
		}
	],
	"images":[
		{
			"mimeType":"image/png",
			"name":"Atlas_Xmas_Items_01",
			"uri":"Atlas_Xmas_Items_01.png"
		}
	],
	"accessors":[
		{
			"bufferView":0,
			"componentType":5126,
			"count":176,
			"max":[
				6.0944695472717285,
				16.41751480102539,
				2.1324219703674316
			],
			"min":[
				-6.220943927764893,
				-8.38199234008789,
				-1.106734275817871
			],
			"type":"VEC3"
		},
		{
			"bufferView":1,
			"componentType":5126,
			"count":176,
			"type":"VEC3"
		},
		{
			"bufferView":2,
			"componentType":5126,
			"count":176,
			"type":"VEC2"
		},
		{
			"bufferView":3,
			"componentType":5123,
			"count":378,
			"type":"SCALAR"
		}
	],
	"bufferViews":[
		{
			"buffer":0,
			"byteLength":2112,
			"byteOffset":0,
			"target":34962
		},
		{
			"buffer":0,
			"byteLength":2112,
			"byteOffset":2112,
			"target":34962
		},
		{
			"buffer":0,
			"byteLength":1408,
			"byteOffset":4224,
			"target":34962
		},
		{
			"buffer":0,
			"byteLength":756,
			"byteOffset":5632,
			"target":34963
		}
	],
	"samplers":[
		{
			"magFilter":9729,
			"minFilter":9987
		}
	],
	"buffers":[
		{
			"byteLength":6388,
			"uri":"candy.bin"
		}
	]
}
