{
	"asset":{
		"generator":"Khronos glTF Blender I/O v4.2.60",
		"version":"2.0"
	},
	"extensionsUsed":[
		"KHR_materials_specular"
	],
	"scene":0,
	"scenes":[
		{
			"name":"Scene",
			"nodes":[
				0
			]
		}
	],
	"nodes":[
		{
			"mesh":0,
			"name":"CandyCane_02",
			"rotation":[
				0,
				0.4226183295249939,
				0,
				0.9063077569007874
			],
			"scale":[
				0.008594791404902935,
				0.008594791404902935,
				0.008594791404902935
			],
			"translation":[
				3.660759449005127,
				0.03768922761082649,
				-4.3618316650390625
			]
		}
	],
	"materials":[
		{
			"doubleSided":true,
			"extensions":{
				"KHR_materials_specular":{
					"specularFactor":0
				}
			},
			"name":"Material #427.008",
			"pbrMetallicRoughness":{
				"baseColorTexture":{
					"index":0
				},
				"roughnessFactor":0.858578622341156
			}
		}
	],
	"meshes":[
		{
			"name":"Mesh.056",
			"primitives":[
				{
					"attributes":{
						"POSITION":0,
						"NORMAL":1,
						"TEXCOORD_0":2
					},
					"indices":3,
					"material":0
				}
			]
		}
	],
	"textures":[
		{
			"sampler":0,
			"source":0
		}
	],
	"images":[
		{
			"mimeType":"image/png",
			"name":"Atlas_Xmas_Items_01",
			"uri":"Atlas_Xmas_Items_01.png"
		}
	],
	"accessors":[
		{
			"bufferView":0,
			"componentType":5126,
			"count":113,
			"max":[
				-651.4598388671875,
				147.1044464111328,
				11.466673851013184
			],
			"min":[
				-718.5076904296875,
				-4.0669097900390625,
				-11.964821815490723
			],
			"type":"VEC3"
		},
		{
			"bufferView":1,
			"componentType":5126,
			"count":113,
			"type":"VEC3"
		},
		{
			"bufferView":2,
			"componentType":5126,
			"count":113,
			"type":"VEC2"
		},
		{
			"bufferView":3,
			"componentType":5123,
			"count":648,
			"type":"SCALAR"
		}
	],
	"bufferViews":[
		{
			"buffer":0,
			"byteLength":1356,
			"byteOffset":0,
			"target":34962
		},
		{
			"buffer":0,
			"byteLength":1356,
			"byteOffset":1356,
			"target":34962
		},
		{
			"buffer":0,
			"byteLength":904,
			"byteOffset":2712,
			"target":34962
		},
		{
			"buffer":0,
			"byteLength":1296,
			"byteOffset":3616,
			"target":34963
		}
	],
	"samplers":[
		{
			"magFilter":9729,
			"minFilter":9987
		}
	],
	"buffers":[
		{
			"byteLength":4912,
			"uri":"candy.bin"
		}
	]
}
