{
	"asset":{
		"generator":"Khronos glTF Blender I/O v4.2.60",
		"version":"2.0"
	},
	"scene":0,
	"scenes":[
		{
			"name":"Scene",
			"nodes":[
				0
			]
		}
	],
	"nodes":[
		{
			"mesh":0,
			"name":"Coin",
			"rotation":[
				0.7071068286895752,
				0,
				0,
				0.7071068286895752
			],
			"scale":[
				1,
				0.10000001639127731,
				1
			]
		}
	],
	"materials":[
		{
			"doubleSided":true,
			"name":"Gold",
			"pbrMetallicRoughness":{
				"baseColorFactor":[
					0.8000000715255737,
					0.38060232996940613,
					0,
					1
				],
				"metallicFactor":0.800000011920929,
				"roughnessFactor":0.20000000298023224
			}
		},
		{
			"doubleSided":true,
			"name":"SmothGold",
			"pbrMetallicRoughness":{
				"baseColorFactor":[
					0.8000000715255737,
					0.38060232996940613,
					0,
					1
				],
				"metallicFactor":0.8999999761581421,
				"roughnessFactor":0.20000000298023224
			}
		}
	],
	"meshes":[
		{
			"name":"Cylinder.002",
			"primitives":[
				{
					"attributes":{
						"POSITION":0,
						"NORMAL":1,
						"TEXCOORD_0":2
					},
					"indices":3,
					"material":0
				},
				{
					"attributes":{
						"POSITION":4,
						"NORMAL":5,
						"TEXCOORD_0":6
					},
					"indices":7,
					"material":1
				}
			]
		}
	],
	"accessors":[
		{
			"bufferView":0,
			"componentType":5126,
			"count":9003,
			"max":[
				1.0160146951675415,
				1.050026297569275,
				1.0160146951675415
			],
			"min":[
				-1.0160146951675415,
				-1.050026297569275,
				-1.0160146951675415
			],
			"type":"VEC3"
		},
		{
			"bufferView":1,
			"componentType":5126,
			"count":9003,
			"type":"VEC3"
		},
		{
			"bufferView":2,
			"componentType":5126,
			"count":9003,
			"type":"VEC2"
		},
		{
			"bufferView":3,
			"componentType":5123,
			"count":17292,
			"type":"SCALAR"
		},
		{
			"bufferView":4,
			"componentType":5126,
			"count":2324,
			"max":[
				0.9799032211303711,
				1.0500009059906006,
				0.9799032211303711
			],
			"min":[
				-0.9799032211303711,
				-1.0500009059906006,
				-0.9799032211303711
			],
			"type":"VEC3"
		},
		{
			"bufferView":5,
			"componentType":5126,
			"count":2324,
			"type":"VEC3"
		},
		{
			"bufferView":6,
			"componentType":5126,
			"count":2324,
			"type":"VEC2"
		},
		{
			"bufferView":7,
			"componentType":5123,
			"count":3528,
			"type":"SCALAR"
		}
	],
	"bufferViews":[
		{
			"buffer":0,
			"byteLength":108036,
			"byteOffset":0,
			"target":34962
		},
		{
			"buffer":0,
			"byteLength":108036,
			"byteOffset":108036,
			"target":34962
		},
		{
			"buffer":0,
			"byteLength":72024,
			"byteOffset":216072,
			"target":34962
		},
		{
			"buffer":0,
			"byteLength":34584,
			"byteOffset":288096,
			"target":34963
		},
		{
			"buffer":0,
			"byteLength":27888,
			"byteOffset":322680,
			"target":34962
		},
		{
			"buffer":0,
			"byteLength":27888,
			"byteOffset":350568,
			"target":34962
		},
		{
			"buffer":0,
			"byteLength":18592,
			"byteOffset":378456,
			"target":34962
		},
		{
			"buffer":0,
			"byteLength":7056,
			"byteOffset":397048,
			"target":34963
		}
	],
	"buffers":[
		{
			"byteLength":404104,
			"uri":"gold.bin"
		}
	]
}
