{
	"asset":{
		"generator":"Khronos glTF Blender I/O v4.2.60",
		"version":"2.0"
	},
	"extensionsUsed":[
		"KHR_materials_specular"
	],
	"scene":0,
	"scenes":[
		{
			"name":"Scene",
			"nodes":[
				0
			]
		}
	],
	"nodes":[
		{
			"mesh":0,
			"name":"PineTree_02",
			"scale":[
				0.018200894817709923,
				0.018200894817709923,
				0.018200894817709923
			],
			"translation":[
				0.00014586001634597778,
				0.0010470850393176079,
				0.0018877740949392319
			]
		}
	],
	"materials":[
		{
			"alphaMode":"BLEND",
			"doubleSided":true,
			"extensions":{
				"KHR_materials_specular":{
					"specularFactor":0
				}
			},
			"name":"Material #428.016",
			"pbrMetallicRoughness":{
				"baseColorTexture":{
					"index":0
				},
				"roughnessFactor":0.858578622341156
			}
		}
	],
	"meshes":[
		{
			"name":"Mesh.019",
			"primitives":[
				{
					"attributes":{
						"POSITION":0,
						"NORMAL":1,
						"TEXCOORD_0":2
					},
					"indices":3,
					"material":0
				}
			]
		}
	],
	"textures":[
		{
			"sampler":0,
			"source":0
		}
	],
	"images":[
		{
			"mimeType":"image/png",
			"name":"Atlas_Xmas_Items_02",
			"uri":"Atlas_Xmas_Items_02.png"
		}
	],
	"accessors":[
		{
			"bufferView":0,
			"componentType":5126,
			"count":99,
			"max":[
				69.50067138671875,
				179.76507568359375,
				69.4854965209961
			],
			"min":[
				-69.04764556884766,
				-3.766826353057695e-07,
				-69.06282043457031
			],
			"type":"VEC3"
		},
		{
			"bufferView":1,
			"componentType":5126,
			"count":99,
			"type":"VEC3"
		},
		{
			"bufferView":2,
			"componentType":5126,
			"count":99,
			"type":"VEC2"
		},
		{
			"bufferView":3,
			"componentType":5123,
			"count":396,
			"type":"SCALAR"
		}
	],
	"bufferViews":[
		{
			"buffer":0,
			"byteLength":1188,
			"byteOffset":0,
			"target":34962
		},
		{
			"buffer":0,
			"byteLength":1188,
			"byteOffset":1188,
			"target":34962
		},
		{
			"buffer":0,
			"byteLength":792,
			"byteOffset":2376,
			"target":34962
		},
		{
			"buffer":0,
			"byteLength":792,
			"byteOffset":3168,
			"target":34963
		}
	],
	"samplers":[
		{
			"magFilter":9729,
			"minFilter":9987
		}
	],
	"buffers":[
		{
			"byteLength":3960,
			"uri":"stocktree.bin"
		}
	]
}
