{
	"asset":{
		"generator":"Khronos glTF Blender I/O v4.2.60",
		"version":"2.0"
	},
	"scene":0,
	"scenes":[
		{
			"name":"Scene",
			"nodes":[
				0
			]
		}
	],
	"nodes":[
		{
			"mesh":0,
			"name":"Circle.002",
			"scale":[
				13.04097843170166,
				13.04097843170166,
				13.04097843170166
			]
		}
	],
	"materials":[
		{
			"doubleSided":true,
			"name":"Material.004",
			"pbrMetallicRoughness":{
				"baseColorTexture":{
					"index":0
				},
				"metallicFactor":0,
				"roughnessFactor":0.5
			}
		}
	],
	"meshes":[
		{
			"name":"Circle.001",
			"primitives":[
				{
					"attributes":{
						"POSITION":0,
						"NORMAL":1,
						"TEXCOORD_0":2
					},
					"indices":3,
					"material":0
				}
			]
		}
	],
	"textures":[
		{
			"sampler":0,
			"source":0
		}
	],
	"images":[
		{
			"mimeType":"image/png",
			"name":"Material.001_Base_Color",
			"uri":"Material_001_Base_Color.png"
		}
	],
	"accessors":[
		{
			"bufferView":0,
			"componentType":5126,
			"count":5390,
			"max":[
				0.03318891301751137,
				0.10869023203849792,
				0.033188916742801666
			],
			"min":[
				-0.03873823955655098,
				6.634792953263968e-05,
				-0.03963139280676842
			],
			"type":"VEC3"
		},
		{
			"bufferView":1,
			"componentType":5126,
			"count":5390,
			"type":"VEC3"
		},
		{
			"bufferView":2,
			"componentType":5126,
			"count":5390,
			"type":"VEC2"
		},
		{
			"bufferView":3,
			"componentType":5123,
			"count":17466,
			"type":"SCALAR"
		}
	],
	"bufferViews":[
		{
			"buffer":0,
			"byteLength":64680,
			"byteOffset":0,
			"target":34962
		},
		{
			"buffer":0,
			"byteLength":64680,
			"byteOffset":64680,
			"target":34962
		},
		{
			"buffer":0,
			"byteLength":43120,
			"byteOffset":129360,
			"target":34962
		},
		{
			"buffer":0,
			"byteLength":34932,
			"byteOffset":172480,
			"target":34963
		}
	],
	"samplers":[
		{
			"magFilter":9729,
			"minFilter":9987
		}
	],
	"buffers":[
		{
			"byteLength":207412,
			"uri":"cupcake.bin"
		}
	]
}
