{
	"asset":{
		"generator":"Khronos glTF Blender I/O v4.2.60",
		"version":"2.0"
	},
	"scene":0,
	"scenes":[
		{
			"name":"Scene",
			"nodes":[
				0,
				1
			]
		}
	],
	"nodes":[
		{
			"mesh":0,
			"name":"pCylinder12.001",
			"rotation":[
				-1,
				0,
				0,
				7.549790126404332e-08
			],
			"scale":[
				0.030812617391347885,
				0.030812617391347885,
				0.030812617391347885
			],
			"translation":[
				-0.05310896039009094,
				0.20470820367336273,
				0.0021273428574204445
			]
		},
		{
			"mesh":1,
			"name":"typeMesh1.001",
			"rotation":[
				-1,
				0,
				0,
				7.549790126404332e-08
			],
			"scale":[
				0.030812617391347885,
				0.030812617391347885,
				0.030812617391347885
			],
			"translation":[
				-0.051196690648794174,
				0.20470820367336273,
				0.0021273428574204445
			]
		}
	],
	"materials":[
		{
			"doubleSided":true,
			"name":"lambert1",
			"pbrMetallicRoughness":{
				"baseColorFactor":[
					0.5,
					0.5,
					0.5,
					1
				],
				"roughnessFactor":0.5527864098548889
			}
		},
		{
			"doubleSided":true,
			"name":"typeBlinn",
			"pbrMetallicRoughness":{
				"metallicFactor":0.5,
				"roughnessFactor":0.7487671971321106
			}
		}
	],
	"meshes":[
		{
			"name":"Mesh.002",
			"primitives":[
				{
					"attributes":{
						"POSITION":0,
						"NORMAL":1,
						"TEXCOORD_0":2
					},
					"indices":3,
					"material":0
				}
			]
		},
		{
			"name":"Mesh.003",
			"primitives":[
				{
					"attributes":{
						"POSITION":4,
						"NORMAL":5,
						"TEXCOORD_0":6
					},
					"indices":7,
					"material":1
				}
			]
		}
	],
	"accessors":[
		{
			"bufferView":0,
			"componentType":5126,
			"count":1222,
			"max":[
				5.4482879638671875,
				6.486612319946289,
				-2.077920436859131
			],
			"min":[
				-2.348419189453125,
				-1.3100526332855225,
				-2.6731762886047363
			],
			"type":"VEC3"
		},
		{
			"bufferView":1,
			"componentType":5126,
			"count":1222,
			"type":"VEC3"
		},
		{
			"bufferView":2,
			"componentType":5126,
			"count":1222,
			"type":"VEC2"
		},
		{
			"bufferView":3,
			"componentType":5123,
			"count":6240,
			"type":"SCALAR"
		},
		{
			"bufferView":4,
			"componentType":5126,
			"count":1206,
			"max":[
				2.8897705078125,
				5.443939208984375,
				-2.153179883956909
			],
			"min":[
				0.2108154296875,
				-0.267364501953125,
				-2.606081962585449
			],
			"type":"VEC3"
		},
		{
			"bufferView":5,
			"componentType":5126,
			"count":1206,
			"type":"VEC3"
		},
		{
			"bufferView":6,
			"componentType":5126,
			"count":1206,
			"type":"VEC2"
		},
		{
			"bufferView":7,
			"componentType":5123,
			"count":5268,
			"type":"SCALAR"
		}
	],
	"bufferViews":[
		{
			"buffer":0,
			"byteLength":14664,
			"byteOffset":0,
			"target":34962
		},
		{
			"buffer":0,
			"byteLength":14664,
			"byteOffset":14664,
			"target":34962
		},
		{
			"buffer":0,
			"byteLength":9776,
			"byteOffset":29328,
			"target":34962
		},
		{
			"buffer":0,
			"byteLength":12480,
			"byteOffset":39104,
			"target":34963
		},
		{
			"buffer":0,
			"byteLength":14472,
			"byteOffset":51584,
			"target":34962
		},
		{
			"buffer":0,
			"byteLength":14472,
			"byteOffset":66056,
			"target":34962
		},
		{
			"buffer":0,
			"byteLength":9648,
			"byteOffset":80528,
			"target":34962
		},
		{
			"buffer":0,
			"byteLength":10536,
			"byteOffset":90176,
			"target":34963
		}
	],
	"buffers":[
		{
			"byteLength":100712,
			"uri":"silver.bin"
		}
	]
}
