{
	"asset":{
		"generator":"Khronos glTF Blender I/O v4.2.60",
		"version":"2.0"
	},
	"scene":0,
	"scenes":[
		{
			"name":"Scene",
			"nodes":[
				2
			]
		}
	],
	"nodes":[
		{
			"mesh":0,
			"name":"Sphere.001",
			"scale":[
				0.2587119936943054,
				0.2587119936943054,
				0.2587119936943054
			],
			"translation":[
				0,
				0.998706042766571,
				0
			]
		},
		{
			"mesh":1,
			"name":"Sphere.002",
			"scale":[
				0.42224806547164917,
				0.42224809527397156,
				0.42224806547164917
			],
			"translation":[
				0,
				-1.314387321472168,
				0
			]
		},
		{
			"children":[
				0,
				1
			],
			"mesh":2,
			"name":"Sphere",
			"rotation":[
				-0.10659439116716385,
				-0.004381353035569191,
				0.14577454328536987,
				0.9835488200187683
			],
			"scale":[
				0.6298038363456726,
				0.6298038363456726,
				0.6298038363456726
			],
			"translation":[
				-0.10240785777568817,
				1.2256405353546143,
				0
			]
		}
	],
	"materials":[
		{
			"doubleSided":true,
			"name":"Material.001",
			"pbrMetallicRoughness":{
				"baseColorFactor":[
					0.8000000715255737,
					0.3599832355976105,
					0,
					1
				],
				"metallicFactor":0.6942446231842041,
				"roughnessFactor":0.5682145357131958
			}
		}
	],
	"meshes":[
		{
			"name":"Sphere.004",
			"primitives":[
				{
					"attributes":{
						"POSITION":0,
						"NORMAL":1,
						"TEXCOORD_0":2
					},
					"indices":3,
					"material":0
				}
			]
		},
		{
			"name":"Sphere.005",
			"primitives":[
				{
					"attributes":{
						"POSITION":4,
						"NORMAL":5,
						"TEXCOORD_0":6
					},
					"indices":3,
					"material":0
				}
			]
		},
		{
			"name":"Sphere.003",
			"primitives":[
				{
					"attributes":{
						"POSITION":7,
						"NORMAL":8,
						"TEXCOORD_0":9
					},
					"indices":10,
					"material":0
				}
			]
		}
	],
	"accessors":[
		{
			"bufferView":0,
			"componentType":5126,
			"count":559,
			"max":[
				0.9999997019767761,
				1,
				0.9999994039535522
			],
			"min":[
				-0.9999990463256836,
				-1,
				-0.9999987483024597
			],
			"type":"VEC3"
		},
		{
			"bufferView":1,
			"componentType":5126,
			"count":559,
			"type":"VEC3"
		},
		{
			"bufferView":2,
			"componentType":5126,
			"count":559,
			"type":"VEC2"
		},
		{
			"bufferView":3,
			"componentType":5123,
			"count":2880,
			"type":"SCALAR"
		},
		{
			"bufferView":4,
			"componentType":5126,
			"count":559,
			"max":[
				0.9999997019767761,
				1,
				0.9999994039535522
			],
			"min":[
				-0.9999990463256836,
				-1,
				-0.9999987483024597
			],
			"type":"VEC3"
		},
		{
			"bufferView":5,
			"componentType":5126,
			"count":559,
			"type":"VEC3"
		},
		{
			"bufferView":6,
			"componentType":5126,
			"count":559,
			"type":"VEC2"
		},
		{
			"bufferView":7,
			"componentType":5126,
			"count":4306,
			"max":[
				1.234852910041809,
				0.9975855350494385,
				1.2348525524139404
			],
			"min":[
				-1.2348523139953613,
				-1.3712443113327026,
				-1.2348523139953613
			],
			"type":"VEC3"
		},
		{
			"bufferView":8,
			"componentType":5126,
			"count":4306,
			"type":"VEC3"
		},
		{
			"bufferView":9,
			"componentType":5126,
			"count":4306,
			"type":"VEC2"
		},
		{
			"bufferView":10,
			"componentType":5123,
			"count":20352,
			"type":"SCALAR"
		}
	],
	"bufferViews":[
		{
			"buffer":0,
			"byteLength":6708,
			"byteOffset":0,
			"target":34962
		},
		{
			"buffer":0,
			"byteLength":6708,
			"byteOffset":6708,
			"target":34962
		},
		{
			"buffer":0,
			"byteLength":4472,
			"byteOffset":13416,
			"target":34962
		},
		{
			"buffer":0,
			"byteLength":5760,
			"byteOffset":17888,
			"target":34963
		},
		{
			"buffer":0,
			"byteLength":6708,
			"byteOffset":23648,
			"target":34962
		},
		{
			"buffer":0,
			"byteLength":6708,
			"byteOffset":30356,
			"target":34962
		},
		{
			"buffer":0,
			"byteLength":4472,
			"byteOffset":37064,
			"target":34962
		},
		{
			"buffer":0,
			"byteLength":51672,
			"byteOffset":41536,
			"target":34962
		},
		{
			"buffer":0,
			"byteLength":51672,
			"byteOffset":93208,
			"target":34962
		},
		{
			"buffer":0,
			"byteLength":34448,
			"byteOffset":144880,
			"target":34962
		},
		{
			"buffer":0,
			"byteLength":40704,
			"byteOffset":179328,
			"target":34963
		}
	],
	"buffers":[
		{
			"byteLength":220032,
			"uri":"goldbell.bin"
		}
	]
}
