{
	"asset":{
		"generator":"Khronos glTF Blender I/O v4.2.60",
		"version":"2.0"
	},
	"extensionsUsed":[
		"KHR_materials_specular"
	],
	"scene":0,
	"scenes":[
		{
			"name":"Scene",
			"nodes":[
				0
			]
		}
	],
	"nodes":[
		{
			"mesh":0,
			"name":"U3DMesh",
			"rotation":[
				0.7071068286895752,
				0,
				0,
				0.7071068286895752
			],
			"scale":[
				0.005324867554008961,
				0.005324867554008961,
				0.005324867554008961
			],
			"translation":[
				-0.06174338608980179,
				0.12348677217960358,
				0
			]
		}
	],
	"materials":[
		{
			"doubleSided":true,
			"extensions":{
				"KHR_materials_specular":{
					"specularColorFactor":[
						2.0,
						2.0,
						2.0
					]
				}
			},
			"name":"white_hat",
			"pbrMetallicRoughness":{
				"baseColorTexture":{
					"index":0
				},
				"roughnessFactor":0.8999999761581421
			}
		}
	],
	"meshes":[
		{
			"name":"U3DMesh",
			"primitives":[
				{
					"attributes":{
						"POSITION":0,
						"NORMAL":1,
						"TEXCOORD_0":2,
						"TEXCOORD_1":3,
						"COLOR_0":4,
						"COLOR_1":5
					},
					"indices":6,
					"material":0
				}
			]
		}
	],
	"textures":[
		{
			"sampler":0,
			"source":0
		}
	],
	"images":[
		{
			"mimeType":"image/jpeg",
			"name":"0_ChristmasHat4_white_hat_BaseColor",
			"uri":"0_ChristmasHat4_white_hat_BaseColor.jpg"
		}
	],
	"accessors":[
		{
			"bufferView":0,
			"componentType":5126,
			"count":11173,
			"max":[
				90.09058380126953,
				88.860595703125,
				63.96238708496094
			],
			"min":[
				-110.14200592041016,
				-88.77947235107422,
				-179.31553649902344
			],
			"type":"VEC3"
		},
		{
			"bufferView":1,
			"componentType":5126,
			"count":11173,
			"type":"VEC3"
		},
		{
			"bufferView":2,
			"componentType":5126,
			"count":11173,
			"type":"VEC2"
		},
		{
			"bufferView":3,
			"componentType":5126,
			"count":11173,
			"type":"VEC2"
		},
		{
			"bufferView":4,
			"componentType":5121,
			"count":11173,
			"normalized":true,
			"type":"VEC4"
		},
		{
			"bufferView":5,
			"componentType":5126,
			"count":11173,
			"type":"VEC3"
		},
		{
			"bufferView":6,
			"componentType":5123,
			"count":58596,
			"type":"SCALAR"
		}
	],
	"bufferViews":[
		{
			"buffer":0,
			"byteLength":134076,
			"byteOffset":0,
			"target":34962
		},
		{
			"buffer":0,
			"byteLength":134076,
			"byteOffset":134076,
			"target":34962
		},
		{
			"buffer":0,
			"byteLength":89384,
			"byteOffset":268152,
			"target":34962
		},
		{
			"buffer":0,
			"byteLength":89384,
			"byteOffset":357536,
			"target":34962
		},
		{
			"buffer":0,
			"byteLength":44692,
			"byteOffset":446920,
			"target":34962
		},
		{
			"buffer":0,
			"byteLength":134076,
			"byteOffset":491612,
			"target":34962
		},
		{
			"buffer":0,
			"byteLength":117192,
			"byteOffset":625688,
			"target":34963
		}
	],
	"samplers":[
		{
			"magFilter":9729,
			"minFilter":9987
		}
	],
	"buffers":[
		{
			"byteLength":742880,
			"uri":"hat.bin"
		}
	]
}
